<svg fill="none" height="24" viewBox="0 0 48 24" width="48" xmlns="http://www.w3.org/2000/svg"><g fill="#1e0536"><path d="m9.904 18h-5.04c-1.33333 0-2.32533-.2667-2.976-.8-.64-.5333-.96-1.3547-.96-2.464v-4.992c0-1.10933.32-1.93067.96-2.464.65067-.53333 1.64267-.8 2.976-.8h4c.20267 0 .34667.048.432.144.096.08533.144.22933.144.432v1.936c0 .20267-.048.352-.144.448-.08533.08533-.22933.128-.432.128h-3.328c-.33067 0-.576.06933-.736.208-.16.128-.24.3253-.24.592v3.824c0 .2667.05867.464.176.592.128.128.31467.192.56.192h1.552v-2.496c0-.2027.04267-.3467.128-.432.096-.096.24533-.144.448-.144h2.48c.2027 0 .3467.048.432.144.096.0853.144.2293.144.432v4.944c0 .2027-.048.352-.144.448-.0853.0853-.2293.128-.432.128z"/><path d="m14.424 18c-.2027 0-.352-.0427-.448-.128-.0853-.096-.128-.2453-.128-.448v-1.904c0-.2027.0427-.3467.128-.432.096-.096.2453-.144.448-.144h1.584v-5.376h-1.584c-.2027 0-.352-.04267-.448-.128-.0853-.096-.128-.24533-.128-.448v-1.936c0-.20267.0427-.34667.128-.432.096-.096.2453-.144.448-.144h6.816c.2027 0 .3467.048.432.144.096.08533.144.22933.144.432v1.936c0 .20267-.048.352-.144.448-.0853.08533-.2293.128-.432.128h-1.552v5.376h1.552c.2027 0 .3467.048.432.144.096.0853.144.2293.144.432v1.904c0 .2027-.048.352-.144.448-.0853.0853-.2293.128-.432.128z"/><path d="m38.36 14.976h4.016c.256 0 .4213-.048.496-.144s.112-.208.112-.336v-.432c0-.128-.0373-.2347-.112-.32-.0747-.096-.24-.144-.496-.144h-2.72c-.2027 0-.352-.0427-.448-.128-.0853-.096-.128-.2453-.128-.448v-1.712c0-.2027.0427-.3467.128-.432.096-.096.2453-.144.448-.144h1.68c.256 0 .4213-.048.496-.144s.112-.208.112-.336v-.24c0-.128-.0373-.24-.112-.336s-.24-.144-.496-.144h-2.976c-.2027 0-.352-.04267-.448-.128-.0853-.096-.128-.24533-.128-.448v-1.904c0-.20267.0427-.34667.128-.432.096-.096.2453-.144.448-.144h4.464c.8853 0 1.5413.208 1.968.624.4373.40533.656.96.656 1.664v.928c0 .4053-.0693.7573-.208 1.056s-.384.5227-.736.672c.7573.0853 1.28.32 1.568.704.2987.3733.448.912.448 1.616v1.6c0 .8213-.2613 1.472-.784 1.952-.5227.4693-1.296.704-2.32.704h-5.056c-.2027 0-.352-.0427-.448-.128-.0853-.096-.128-.2453-.128-.448v-1.872c0-.2027.0427-.3467.128-.432.096-.096.2453-.144.448-.144z"/></g><path d="m34.4322 12.3889-1.3569 3.0152c-.0486.108-.134.1953-.241.2462l-2.7399 1.3047c-.0591.0282-.1283.0256-.1852-.0069l-2.3194-1.3253c-.0592-.0339-.1109-.0795-.1519-.1342l-2.2379-2.9838c-.1298-.1731-.2-.3837-.2-.6v-3.73355c0-.61481.5496-1.08402 1.1568-.98764l1.5808.25093c.1641.02604.3045.13186.3747.28238l1.7971 3.85078c.0359.077.1453.077.1812 0l1.7971-3.85078c.0702-.15052.2106-.25633.3747-.28238l1.4627-.23217c.6456-.10249 1.2144.4319 1.1522 1.08265l-.3616 3.78848c-.0104.109-.0386.2155-.0835.3154z" fill="#ef1111"/><path d="m33.0753 15.4041.6839.3078zm1.3569-3.0152.6839.3077zm.0835-.3154.7466.0713zm.3616-3.78848-.7466-.07126zm-1.1522-1.08265-.1176-.74073zm-1.4627.23217.1175.74073zm-.3747.28238-.6797-.31716zm-1.7971 3.85078.6797.3172zm-.1812 0 .6796-.3171zm-1.7971-3.85078.6797-.31716zm-.3747-.28238-.1175.74073zm-1.5808-.25093.1175-.74072zm-.9568 5.32119-.6.45zm2.2379 2.9838.6-.45zm.1519.1342.3721-.6512zm2.3194 1.3253-.3721.6512zm.1852.0069.3225.6772zm2.7399-1.3047.3225.6772zm.9249.0616 1.3569-3.0153-1.3679-.6155-1.3568 3.0152zm1.5031-3.5671.3616-3.78851-1.4932-.14253-.3616 3.78854zm-1.6548-5.68316-1.4627.23218.2351 1.48145 1.4628-.23218zm-2.3995.93812-1.797 3.85084 1.3593.6343 1.797-3.85082zm-.619 3.85084-1.797-3.85084-1.3593.63432 1.797 3.85082zm-2.7338-4.55678-1.5809-.25093-.2351 1.48145 1.5809.25093zm-3.6052 1.47743v3.73355h1.5v-3.73355zm.35 4.78355 2.2379 2.9838 1.2-.9-2.2379-2.9838zm2.6177 3.3191 2.3194 1.3254.7442-1.3024-2.3194-1.3253zm3.1992 1.3583 2.7399-1.3047-.6449-1.3543-2.7399 1.3047zm-.8798-.0329c.2702.1544.5988.1667.8798.0329l-.6449-1.3543c.1626-.0775.3529-.0703.5093.019zm-5.2871-5.6945c0 .3786.1228.747.35 1.05l1.2-.9c-.0325-.0433-.05-.0959-.05-.15zm2.0243-5.46191c-1.0626-.16867-2.0243.65244-2.0243 1.72836h1.5c0-.1537.1374-.27101.2892-.24691zm2.5177.95687c-.1756-.37631-.5267-.64084-.9368-.70594l-.2351 1.48145c-.0821-.01302-.1523-.06592-.1874-.14119zm.619 3.85084c.2334-.5002.9446-.5002 1.178 0l-1.3593.6343c.3053.6541 1.2353.654 1.5406 0zm2.7338-4.55678c-.4101.0651-.7612.32963-.9368.70594l1.3593.63432c-.0351.07527-.1053.12817-.1874.14119zm3.4791 1.66247c.1088-1.13882-.8865-2.07399-2.0164-1.89465l.2352 1.48145c.1614-.02562.3036.10798.288.27067zm-.5078 4.34031c.0786-.1747.128-.3611.1462-.5518l-1.4932-.1426c-.0026.0273-.0097.0539-.0209.0789zm-2.7247 2.3997c.0243-.054.067-.0976.1205-.1231l.6449 1.3543c.2674-.1274.4809-.3455.6024-.6156zm-5.5535.8423c.1024.1366.2317.2507.3798.3354l.7442-1.3024c.0297.0169.0555.0397.076.067z" fill="#1e0536"/></svg>